<mxfile host="app.diagrams.net" agent="Mozilla/5.0 (Windows NT 10.0; Win64; x64) AppleWebKit/537.36 (KHTML, like Gecko) Chrome/136.0.0.0 Safari/537.36" version="27.1.1">
  <diagram name="Page-1" id="-KCevvgW2zheTWnlfHDk">
    <mxGraphModel grid="1" page="1" gridSize="10" guides="1" tooltips="1" connect="1" arrows="1" fold="1" pageScale="1" pageWidth="827" pageHeight="1169" math="0" shadow="0">
      <root>
        <mxCell id="0" />
        <mxCell id="1" parent="0" />
        <mxCell id="x6VjxIdZaCnbt4Dg5KS--1" value="AWS Cloud" style="points=[[0,0],[0.25,0],[0.5,0],[0.75,0],[1,0],[1,0.25],[1,0.5],[1,0.75],[1,1],[0.75,1],[0.5,1],[0.25,1],[0,1],[0,0.75],[0,0.5],[0,0.25]];outlineConnect=0;gradientColor=none;html=1;whiteSpace=wrap;fontSize=12;fontStyle=0;container=1;pointerEvents=0;collapsible=0;recursiveResize=0;shape=mxgraph.aws4.group;grIcon=mxgraph.aws4.group_aws_cloud;strokeColor=#232F3E;fillColor=default;verticalAlign=top;align=left;spacingLeft=30;fontColor=#232F3E;dashed=0;shadow=1;" vertex="1" parent="1">
          <mxGeometry x="-290" y="160" width="1010" height="820" as="geometry" />
        </mxCell>
        <mxCell id="x6VjxIdZaCnbt4Dg5KS--19" value="&lt;b&gt;S3&amp;nbsp;&lt;/b&gt;&lt;div&gt;&lt;b&gt;Logging&lt;/b&gt;&lt;/div&gt;" style="sketch=0;points=[[0,0,0],[0.25,0,0],[0.5,0,0],[0.75,0,0],[1,0,0],[0,1,0],[0.25,1,0],[0.5,1,0],[0.75,1,0],[1,1,0],[0,0.25,0],[0,0.5,0],[0,0.75,0],[1,0.25,0],[1,0.5,0],[1,0.75,0]];outlineConnect=0;fontColor=#232F3E;fillColor=#7AA116;strokeColor=#ffffff;dashed=0;verticalLabelPosition=bottom;verticalAlign=top;align=center;html=1;fontSize=12;fontStyle=0;aspect=fixed;shape=mxgraph.aws4.resourceIcon;resIcon=mxgraph.aws4.s3;" vertex="1" parent="x6VjxIdZaCnbt4Dg5KS--1">
          <mxGeometry x="800" y="689.25" width="78" height="78" as="geometry" />
        </mxCell>
        <mxCell id="x6VjxIdZaCnbt4Dg5KS--21" value="&lt;b&gt;IAM&lt;/b&gt;&lt;div&gt;&lt;b&gt;Roles&lt;/b&gt;&lt;/div&gt;" style="sketch=0;outlineConnect=0;fontColor=#232F3E;gradientColor=none;fillColor=#DD344C;strokeColor=none;dashed=0;verticalLabelPosition=bottom;verticalAlign=top;align=center;html=1;fontSize=12;fontStyle=0;aspect=fixed;pointerEvents=1;shape=mxgraph.aws4.role;" vertex="1" parent="x6VjxIdZaCnbt4Dg5KS--1">
          <mxGeometry x="622" y="689.25" width="101.93" height="57.5" as="geometry" />
        </mxCell>
        <mxCell id="x6VjxIdZaCnbt4Dg5KS--23" value="&lt;b&gt;SNS&lt;/b&gt;&lt;div&gt;&lt;span style=&quot;background-color: transparent; font-family: ui-monospace, SFMono-Regular, &amp;quot;SF Mono&amp;quot;, Menlo, Consolas, &amp;quot;Liberation Mono&amp;quot;, monospace; font-size: 13.6px; color: rgb(31, 35, 40); text-align: start;&quot;&gt;&lt;b&gt;Notifications&lt;/b&gt;&lt;/span&gt;&lt;/div&gt;" style="sketch=0;points=[[0,0,0],[0.25,0,0],[0.5,0,0],[0.75,0,0],[1,0,0],[0,1,0],[0.25,1,0],[0.5,1,0],[0.75,1,0],[1,1,0],[0,0.25,0],[0,0.5,0],[0,0.75,0],[1,0.25,0],[1,0.5,0],[1,0.75,0]];outlineConnect=0;fontColor=#232F3E;fillColor=#E7157B;strokeColor=#ffffff;dashed=0;verticalLabelPosition=bottom;verticalAlign=top;align=center;html=1;fontSize=12;fontStyle=0;aspect=fixed;shape=mxgraph.aws4.resourceIcon;resIcon=mxgraph.aws4.sns;" vertex="1" parent="x6VjxIdZaCnbt4Dg5KS--1">
          <mxGeometry x="466" y="689.25" width="78" height="78" as="geometry" />
        </mxCell>
        <mxCell id="C-9y3YG87EkK6BEoo3oh-4" value="&lt;b&gt;CoudTrail&lt;/b&gt;" style="sketch=0;points=[[0,0,0],[0.25,0,0],[0.5,0,0],[0.75,0,0],[1,0,0],[0,1,0],[0.25,1,0],[0.5,1,0],[0.75,1,0],[1,1,0],[0,0.25,0],[0,0.5,0],[0,0.75,0],[1,0.25,0],[1,0.5,0],[1,0.75,0]];points=[[0,0,0],[0.25,0,0],[0.5,0,0],[0.75,0,0],[1,0,0],[0,1,0],[0.25,1,0],[0.5,1,0],[0.75,1,0],[1,1,0],[0,0.25,0],[0,0.5,0],[0,0.75,0],[1,0.25,0],[1,0.5,0],[1,0.75,0]];outlineConnect=0;fontColor=#232F3E;fillColor=#E7157B;strokeColor=#ffffff;dashed=0;verticalLabelPosition=bottom;verticalAlign=top;align=center;html=1;fontSize=12;fontStyle=0;aspect=fixed;shape=mxgraph.aws4.resourceIcon;resIcon=mxgraph.aws4.cloudtrail;" vertex="1" parent="x6VjxIdZaCnbt4Dg5KS--1">
          <mxGeometry x="300" y="689.25" width="78" height="78" as="geometry" />
        </mxCell>
        <mxCell id="x6VjxIdZaCnbt4Dg5KS--30" value="&lt;b&gt;CLoudWatch&lt;/b&gt;&lt;div&gt;&lt;b&gt;Monitoriing&lt;/b&gt;&lt;/div&gt;" style="sketch=0;points=[[0,0,0],[0.25,0,0],[0.5,0,0],[0.75,0,0],[1,0,0],[0,1,0],[0.25,1,0],[0.5,1,0],[0.75,1,0],[1,1,0],[0,0.25,0],[0,0.5,0],[0,0.75,0],[1,0.25,0],[1,0.5,0],[1,0.75,0]];points=[[0,0,0],[0.25,0,0],[0.5,0,0],[0.75,0,0],[1,0,0],[0,1,0],[0.25,1,0],[0.5,1,0],[0.75,1,0],[1,1,0],[0,0.25,0],[0,0.5,0],[0,0.75,0],[1,0.25,0],[1,0.5,0],[1,0.75,0]];outlineConnect=0;fontColor=#232F3E;fillColor=#E7157B;strokeColor=#ffffff;dashed=0;verticalLabelPosition=bottom;verticalAlign=top;align=center;html=1;fontSize=12;fontStyle=0;aspect=fixed;shape=mxgraph.aws4.resourceIcon;resIcon=mxgraph.aws4.cloudwatch_2;" vertex="1" parent="x6VjxIdZaCnbt4Dg5KS--1">
          <mxGeometry x="130" y="689.25" width="78" height="78" as="geometry" />
        </mxCell>
        <mxCell id="x6VjxIdZaCnbt4Dg5KS--2" value="VPC" style="points=[[0,0],[0.25,0],[0.5,0],[0.75,0],[1,0],[1,0.25],[1,0.5],[1,0.75],[1,1],[0.75,1],[0.5,1],[0.25,1],[0,1],[0,0.75],[0,0.5],[0,0.25]];outlineConnect=0;gradientColor=none;html=1;whiteSpace=wrap;fontSize=12;fontStyle=0;container=1;pointerEvents=0;collapsible=0;recursiveResize=0;shape=mxgraph.aws4.group;grIcon=mxgraph.aws4.group_vpc2;strokeColor=#8C4FFF;fillColor=none;verticalAlign=top;align=left;spacingLeft=30;fontColor=#AAB7B8;dashed=0;movable=1;resizable=1;rotatable=1;deletable=1;editable=1;locked=0;connectable=1;shadow=1;" vertex="1" parent="1">
          <mxGeometry x="-210" y="200" width="860" height="610" as="geometry" />
        </mxCell>
        <mxCell id="x6VjxIdZaCnbt4Dg5KS--6" value="Public subnet&lt;div&gt;10.0.2.0/24&lt;/div&gt;" style="points=[[0,0],[0.25,0],[0.5,0],[0.75,0],[1,0],[1,0.25],[1,0.5],[1,0.75],[1,1],[0.75,1],[0.5,1],[0.25,1],[0,1],[0,0.75],[0,0.5],[0,0.25]];outlineConnect=0;gradientColor=none;html=1;whiteSpace=wrap;fontSize=12;fontStyle=0;container=1;pointerEvents=0;collapsible=0;recursiveResize=0;shape=mxgraph.aws4.group;grIcon=mxgraph.aws4.group_security_group;grStroke=0;strokeColor=#7AA116;fillColor=#F2F6E8;verticalAlign=top;align=left;spacingLeft=30;fontColor=#248814;dashed=0;" vertex="1" parent="x6VjxIdZaCnbt4Dg5KS--2">
          <mxGeometry x="537" y="207" width="260" height="80" as="geometry" />
        </mxCell>
        <mxCell id="x6VjxIdZaCnbt4Dg5KS--9" value="Private subnet&lt;div&gt;10.0.4.0/24&lt;/div&gt;" style="points=[[0,0],[0.25,0],[0.5,0],[0.75,0],[1,0],[1,0.25],[1,0.5],[1,0.75],[1,1],[0.75,1],[0.5,1],[0.25,1],[0,1],[0,0.75],[0,0.5],[0,0.25]];outlineConnect=0;gradientColor=none;html=1;whiteSpace=wrap;fontSize=12;fontStyle=0;container=1;pointerEvents=0;collapsible=0;recursiveResize=0;shape=mxgraph.aws4.group;grIcon=mxgraph.aws4.group_security_group;grStroke=0;strokeColor=#00A4A6;fillColor=#E6F6F7;verticalAlign=top;align=left;spacingLeft=30;fontColor=#147EBA;dashed=0;" vertex="1" parent="x6VjxIdZaCnbt4Dg5KS--2">
          <mxGeometry x="542" y="317" width="255" height="90" as="geometry" />
        </mxCell>
        <mxCell id="x6VjxIdZaCnbt4Dg5KS--15" value="EC2 Instance" style="sketch=0;points=[[0,0,0],[0.25,0,0],[0.5,0,0],[0.75,0,0],[1,0,0],[0,1,0],[0.25,1,0],[0.5,1,0],[0.75,1,0],[1,1,0],[0,0.25,0],[0,0.5,0],[0,0.75,0],[1,0.25,0],[1,0.5,0],[1,0.75,0]];outlineConnect=0;fontColor=#232F3E;fillColor=#ED7100;strokeColor=#ffffff;dashed=0;verticalLabelPosition=bottom;verticalAlign=top;align=center;html=1;fontSize=12;fontStyle=0;aspect=fixed;shape=mxgraph.aws4.resourceIcon;resIcon=mxgraph.aws4.ec2;" vertex="1" parent="x6VjxIdZaCnbt4Dg5KS--9">
          <mxGeometry x="106" y="28" width="38" height="38" as="geometry" />
        </mxCell>
        <mxCell id="x6VjxIdZaCnbt4Dg5KS--11" value="Private subnet&lt;div&gt;10.0.6.0/24&lt;/div&gt;" style="points=[[0,0],[0.25,0],[0.5,0],[0.75,0],[1,0],[1,0.25],[1,0.5],[1,0.75],[1,1],[0.75,1],[0.5,1],[0.25,1],[0,1],[0,0.75],[0,0.5],[0,0.25]];outlineConnect=0;gradientColor=none;html=1;whiteSpace=wrap;fontSize=12;fontStyle=0;container=1;pointerEvents=0;collapsible=0;recursiveResize=0;shape=mxgraph.aws4.group;grIcon=mxgraph.aws4.group_security_group;grStroke=0;strokeColor=#00A4A6;fillColor=#E6F6F7;verticalAlign=top;align=left;spacingLeft=30;fontColor=#147EBA;dashed=0;movable=1;resizable=1;rotatable=1;deletable=1;editable=1;locked=0;connectable=1;" vertex="1" parent="x6VjxIdZaCnbt4Dg5KS--2">
          <mxGeometry x="542" y="427" width="255" height="110" as="geometry" />
        </mxCell>
        <mxCell id="x6VjxIdZaCnbt4Dg5KS--13" value="&lt;div&gt;RDS Standby&lt;/div&gt;&lt;div&gt;&lt;br&gt;&lt;/div&gt;" style="sketch=0;points=[[0,0,0],[0.25,0,0],[0.5,0,0],[0.75,0,0],[1,0,0],[0,1,0],[0.25,1,0],[0.5,1,0],[0.75,1,0],[1,1,0],[0,0.25,0],[0,0.5,0],[0,0.75,0],[1,0.25,0],[1,0.5,0],[1,0.75,0]];outlineConnect=0;fontColor=#232F3E;fillColor=#C925D1;strokeColor=#ffffff;dashed=0;verticalLabelPosition=bottom;verticalAlign=top;align=center;html=1;fontSize=12;fontStyle=0;aspect=fixed;shape=mxgraph.aws4.resourceIcon;resIcon=mxgraph.aws4.rds;movable=1;resizable=1;rotatable=1;deletable=1;editable=1;locked=0;connectable=1;" vertex="1" parent="x6VjxIdZaCnbt4Dg5KS--11">
          <mxGeometry x="110" y="37.5" width="41.5" height="41.5" as="geometry" />
        </mxCell>
        <mxCell id="x6VjxIdZaCnbt4Dg5KS--14" value="Nat Gateway" style="sketch=0;outlineConnect=0;fontColor=#232F3E;gradientColor=none;fillColor=#8C4FFF;strokeColor=none;dashed=0;verticalLabelPosition=bottom;verticalAlign=top;align=center;html=1;fontSize=12;fontStyle=0;aspect=fixed;pointerEvents=1;shape=mxgraph.aws4.nat_gateway;movable=1;resizable=1;rotatable=1;deletable=1;editable=1;locked=0;connectable=1;" vertex="1" parent="x6VjxIdZaCnbt4Dg5KS--11">
          <mxGeometry x="105" y="-196" width="38" height="38" as="geometry" />
        </mxCell>
        <mxCell id="C-9y3YG87EkK6BEoo3oh-16" style="edgeStyle=orthogonalEdgeStyle;rounded=0;orthogonalLoop=1;jettySize=auto;html=1;entryX=0.5;entryY=0;entryDx=0;entryDy=0;" edge="1" parent="x6VjxIdZaCnbt4Dg5KS--2" source="x6VjxIdZaCnbt4Dg5KS--20" target="x6VjxIdZaCnbt4Dg5KS--12">
          <mxGeometry relative="1" as="geometry" />
        </mxCell>
        <mxCell id="x6VjxIdZaCnbt4Dg5KS--20" value="Application Load Balancer" style="sketch=0;outlineConnect=0;fontColor=#232F3E;gradientColor=none;fillColor=#8C4FFF;strokeColor=none;dashed=0;verticalLabelPosition=bottom;verticalAlign=top;align=center;html=1;fontSize=12;fontStyle=0;aspect=fixed;pointerEvents=1;shape=mxgraph.aws4.application_load_balancer;" vertex="1" parent="x6VjxIdZaCnbt4Dg5KS--2">
          <mxGeometry x="390" y="70" width="50" height="50" as="geometry" />
        </mxCell>
        <mxCell id="x6VjxIdZaCnbt4Dg5KS--4" value="Public subnet&amp;nbsp;&lt;div&gt;10.0.1.0/24&lt;/div&gt;" style="points=[[0,0],[0.25,0],[0.5,0],[0.75,0],[1,0],[1,0.25],[1,0.5],[1,0.75],[1,1],[0.75,1],[0.5,1],[0.25,1],[0,1],[0,0.75],[0,0.5],[0,0.25]];outlineConnect=0;gradientColor=none;html=1;whiteSpace=wrap;fontSize=12;fontStyle=0;container=1;pointerEvents=0;collapsible=0;recursiveResize=0;shape=mxgraph.aws4.group;grIcon=mxgraph.aws4.group_security_group;grStroke=0;strokeColor=#7AA116;fillColor=#F2F6E8;verticalAlign=top;align=left;spacingLeft=30;fontColor=#248814;dashed=0;" vertex="1" parent="x6VjxIdZaCnbt4Dg5KS--2">
          <mxGeometry x="54" y="207" width="270" height="100" as="geometry" />
        </mxCell>
        <mxCell id="x6VjxIdZaCnbt4Dg5KS--5" value="NAT Gateway" style="sketch=0;outlineConnect=0;fontColor=#232F3E;gradientColor=none;fillColor=#8C4FFF;strokeColor=none;dashed=0;verticalLabelPosition=bottom;verticalAlign=top;align=center;html=1;fontSize=12;fontStyle=0;aspect=fixed;pointerEvents=1;shape=mxgraph.aws4.nat_gateway;" vertex="1" parent="x6VjxIdZaCnbt4Dg5KS--4">
          <mxGeometry x="114" y="23" width="34" height="34" as="geometry" />
        </mxCell>
        <mxCell id="x6VjxIdZaCnbt4Dg5KS--7" value="Private subnet&lt;div&gt;10.0.3.0/24&lt;/div&gt;" style="points=[[0,0],[0.25,0],[0.5,0],[0.75,0],[1,0],[1,0.25],[1,0.5],[1,0.75],[1,1],[0.75,1],[0.5,1],[0.25,1],[0,1],[0,0.75],[0,0.5],[0,0.25]];outlineConnect=0;gradientColor=none;html=1;whiteSpace=wrap;fontSize=12;fontStyle=0;container=1;pointerEvents=0;collapsible=0;recursiveResize=0;shape=mxgraph.aws4.group;grIcon=mxgraph.aws4.group_security_group;grStroke=0;strokeColor=#00A4A6;fillColor=#E6F6F7;verticalAlign=top;align=left;spacingLeft=30;fontColor=#147EBA;dashed=0;" vertex="1" parent="x6VjxIdZaCnbt4Dg5KS--2">
          <mxGeometry x="54" y="317" width="266" height="90" as="geometry" />
        </mxCell>
        <mxCell id="x6VjxIdZaCnbt4Dg5KS--8" value="EC2 Instance" style="sketch=0;points=[[0,0,0],[0.25,0,0],[0.5,0,0],[0.75,0,0],[1,0,0],[0,1,0],[0.25,1,0],[0.5,1,0],[0.75,1,0],[1,1,0],[0,0.25,0],[0,0.5,0],[0,0.75,0],[1,0.25,0],[1,0.5,0],[1,0.75,0]];outlineConnect=0;fontColor=#232F3E;fillColor=#ED7100;strokeColor=#ffffff;dashed=0;verticalLabelPosition=bottom;verticalAlign=top;align=center;html=1;fontSize=12;fontStyle=0;aspect=fixed;shape=mxgraph.aws4.resourceIcon;resIcon=mxgraph.aws4.ec2;" vertex="1" parent="x6VjxIdZaCnbt4Dg5KS--7">
          <mxGeometry x="112" y="29" width="38" height="38" as="geometry" />
        </mxCell>
        <mxCell id="C-9y3YG87EkK6BEoo3oh-3" value="Auto Scaling group" style="points=[[0,0],[0.25,0],[0.5,0],[0.75,0],[1,0],[1,0.25],[1,0.5],[1,0.75],[1,1],[0.75,1],[0.5,1],[0.25,1],[0,1],[0,0.75],[0,0.5],[0,0.25]];outlineConnect=0;gradientColor=none;html=1;whiteSpace=wrap;fontSize=12;fontStyle=0;container=1;pointerEvents=0;collapsible=0;recursiveResize=0;shape=mxgraph.aws4.groupCenter;grIcon=mxgraph.aws4.group_auto_scaling_group;grStroke=1;strokeColor=#D86613;fillColor=none;verticalAlign=top;align=center;fontColor=#D86613;dashed=1;spacingTop=25;" vertex="1" parent="x6VjxIdZaCnbt4Dg5KS--2">
          <mxGeometry x="80" y="310" width="700" height="110" as="geometry" />
        </mxCell>
        <mxCell id="C-9y3YG87EkK6BEoo3oh-7" style="edgeStyle=orthogonalEdgeStyle;rounded=0;orthogonalLoop=1;jettySize=auto;html=1;exitX=0.5;exitY=0;exitDx=0;exitDy=0;exitPerimeter=0;entryX=0.658;entryY=1.447;entryDx=0;entryDy=0;entryPerimeter=0;" edge="1" parent="x6VjxIdZaCnbt4Dg5KS--2" source="x6VjxIdZaCnbt4Dg5KS--13" target="x6VjxIdZaCnbt4Dg5KS--15">
          <mxGeometry relative="1" as="geometry" />
        </mxCell>
        <mxCell id="C-9y3YG87EkK6BEoo3oh-11" style="edgeStyle=orthogonalEdgeStyle;rounded=0;orthogonalLoop=1;jettySize=auto;html=1;" edge="1" parent="x6VjxIdZaCnbt4Dg5KS--2" source="C-9y3YG87EkK6BEoo3oh-1" target="x6VjxIdZaCnbt4Dg5KS--20">
          <mxGeometry relative="1" as="geometry" />
        </mxCell>
        <mxCell id="C-9y3YG87EkK6BEoo3oh-1" value="" style="sketch=0;outlineConnect=0;fontColor=#232F3E;gradientColor=none;fillColor=#8C4FFF;strokeColor=none;dashed=0;verticalLabelPosition=bottom;verticalAlign=top;align=center;html=1;fontSize=12;fontStyle=0;aspect=fixed;pointerEvents=1;shape=mxgraph.aws4.internet_gateway;" vertex="1" parent="x6VjxIdZaCnbt4Dg5KS--2">
          <mxGeometry x="396" y="-20" width="38" height="38" as="geometry" />
        </mxCell>
        <mxCell id="C-9y3YG87EkK6BEoo3oh-12" style="edgeStyle=orthogonalEdgeStyle;rounded=0;orthogonalLoop=1;jettySize=auto;html=1;exitX=0;exitY=0.5;exitDx=0;exitDy=0;exitPerimeter=0;" edge="1" parent="x6VjxIdZaCnbt4Dg5KS--2" source="x6VjxIdZaCnbt4Dg5KS--15" target="x6VjxIdZaCnbt4Dg5KS--8">
          <mxGeometry relative="1" as="geometry" />
        </mxCell>
        <mxCell id="x6VjxIdZaCnbt4Dg5KS--12" value="Availability Zone B" style="fillColor=none;strokeColor=#147EBA;dashed=1;verticalAlign=top;fontStyle=0;fontColor=#147EBA;whiteSpace=wrap;html=1;movable=1;resizable=1;rotatable=1;deletable=1;editable=1;locked=0;connectable=1;shadow=1;" vertex="1" parent="x6VjxIdZaCnbt4Dg5KS--2">
          <mxGeometry x="506.5" y="150" width="326" height="437" as="geometry" />
        </mxCell>
        <mxCell id="x6VjxIdZaCnbt4Dg5KS--3" value="&amp;nbsp;Availability Zone A" style="fillColor=none;strokeColor=#147EBA;dashed=1;verticalAlign=top;fontStyle=0;fontColor=#147EBA;whiteSpace=wrap;html=1;shadow=1;" vertex="1" parent="x6VjxIdZaCnbt4Dg5KS--2">
          <mxGeometry x="30" y="157" width="340" height="433" as="geometry" />
        </mxCell>
        <mxCell id="C-9y3YG87EkK6BEoo3oh-15" style="edgeStyle=orthogonalEdgeStyle;rounded=0;orthogonalLoop=1;jettySize=auto;html=1;entryX=0.455;entryY=0.012;entryDx=0;entryDy=0;entryPerimeter=0;" edge="1" parent="x6VjxIdZaCnbt4Dg5KS--2" source="x6VjxIdZaCnbt4Dg5KS--20" target="x6VjxIdZaCnbt4Dg5KS--3">
          <mxGeometry relative="1" as="geometry" />
        </mxCell>
        <mxCell id="x6VjxIdZaCnbt4Dg5KS--17" value="users" style="sketch=0;outlineConnect=0;gradientColor=none;fontColor=#545B64;strokeColor=none;fillColor=#879196;dashed=0;verticalLabelPosition=bottom;verticalAlign=top;align=center;html=1;fontSize=12;fontStyle=0;aspect=fixed;shape=mxgraph.aws4.illustration_users;pointerEvents=1" vertex="1" parent="1">
          <mxGeometry x="40" y="50" width="60" height="60" as="geometry" />
        </mxCell>
        <mxCell id="C-9y3YG87EkK6BEoo3oh-2" value="" style="edgeStyle=orthogonalEdgeStyle;rounded=0;orthogonalLoop=1;jettySize=auto;html=1;" edge="1" parent="1" source="x6VjxIdZaCnbt4Dg5KS--17" target="C-9y3YG87EkK6BEoo3oh-1">
          <mxGeometry relative="1" as="geometry">
            <mxPoint x="-140" y="180" as="sourcePoint" />
            <mxPoint x="155" y="316" as="targetPoint" />
          </mxGeometry>
        </mxCell>
        <mxCell id="x6VjxIdZaCnbt4Dg5KS--10" value="Private subnet&lt;div&gt;10.0.5.0/24&lt;/div&gt;" style="points=[[0,0],[0.25,0],[0.5,0],[0.75,0],[1,0],[1,0.25],[1,0.5],[1,0.75],[1,1],[0.75,1],[0.5,1],[0.25,1],[0,1],[0,0.75],[0,0.5],[0,0.25]];outlineConnect=0;gradientColor=none;html=1;whiteSpace=wrap;fontSize=12;fontStyle=0;container=1;pointerEvents=0;collapsible=0;recursiveResize=0;shape=mxgraph.aws4.group;grIcon=mxgraph.aws4.group_security_group;grStroke=0;strokeColor=#00A4A6;fillColor=#E6F6F7;verticalAlign=top;align=left;spacingLeft=30;fontColor=#147EBA;dashed=0;" vertex="1" parent="1">
          <mxGeometry x="-160" y="626" width="270" height="110" as="geometry" />
        </mxCell>
        <mxCell id="x6VjxIdZaCnbt4Dg5KS--16" value="RDS Primary" style="sketch=0;points=[[0,0,0],[0.25,0,0],[0.5,0,0],[0.75,0,0],[1,0,0],[0,1,0],[0.25,1,0],[0.5,1,0],[0.75,1,0],[1,1,0],[0,0.25,0],[0,0.5,0],[0,0.75,0],[1,0.25,0],[1,0.5,0],[1,0.75,0]];outlineConnect=0;fontColor=#232F3E;fillColor=#C925D1;strokeColor=#ffffff;dashed=0;verticalLabelPosition=bottom;verticalAlign=top;align=center;html=1;fontSize=12;fontStyle=0;aspect=fixed;shape=mxgraph.aws4.resourceIcon;resIcon=mxgraph.aws4.rds;" vertex="1" parent="x6VjxIdZaCnbt4Dg5KS--10">
          <mxGeometry x="118" y="38" width="42" height="42" as="geometry" />
        </mxCell>
        <mxCell id="C-9y3YG87EkK6BEoo3oh-6" style="edgeStyle=orthogonalEdgeStyle;rounded=0;orthogonalLoop=1;jettySize=auto;html=1;exitX=1;exitY=0.5;exitDx=0;exitDy=0;exitPerimeter=0;entryX=0;entryY=0.5;entryDx=0;entryDy=0;entryPerimeter=0;" edge="1" parent="1" source="x6VjxIdZaCnbt4Dg5KS--16" target="x6VjxIdZaCnbt4Dg5KS--13">
          <mxGeometry relative="1" as="geometry" />
        </mxCell>
        <mxCell id="C-9y3YG87EkK6BEoo3oh-9" style="edgeStyle=orthogonalEdgeStyle;rounded=0;orthogonalLoop=1;jettySize=auto;html=1;exitX=0.5;exitY=0;exitDx=0;exitDy=0;exitPerimeter=0;entryX=0.605;entryY=1.421;entryDx=0;entryDy=0;entryPerimeter=0;" edge="1" parent="1" source="x6VjxIdZaCnbt4Dg5KS--16" target="x6VjxIdZaCnbt4Dg5KS--8">
          <mxGeometry relative="1" as="geometry" />
        </mxCell>
      </root>
    </mxGraphModel>
  </diagram>
</mxfile>
